<svg xmlns="http://www.w3.org/2000/svg" viewBox="0 0 100 100">
  <!-- Background -->
  <rect x="10" y="10" width="80" height="80" rx="5" ry="5" fill="#E8F5E9" stroke="#388E3C" stroke-width="2" />
  
  <!-- Garden grid -->
  <rect x="20" y="20" width="20" height="20" fill="#A5D6A7" stroke="#388E3C" stroke-width="1" />
  <rect x="40" y="20" width="20" height="20" fill="#A5D6A7" stroke="#388E3C" stroke-width="1" />
  <rect x="60" y="20" width="20" height="20" fill="#A5D6A7" stroke="#388E3C" stroke-width="1" />
  
  <rect x="20" y="40" width="20" height="20" fill="#A5D6A7" stroke="#388E3C" stroke-width="1" />
  <rect x="40" y="40" width="20" height="20" fill="#A5D6A7" stroke="#388E3C" stroke-width="1" />
  <rect x="60" y="40" width="20" height="20" fill="#A5D6A7" stroke="#388E3C" stroke-width="1" />
  
  <rect x="20" y="60" width="20" height="20" fill="#81C784" stroke="#388E3C" stroke-width="1" />
  <rect x="40" y="60" width="20" height="20" fill="#81C784" stroke="#388E3C" stroke-width="1" />
  <rect x="60" y="60" width="20" height="20" fill="#81C784" stroke="#388E3C" stroke-width="1" />
  
  <!-- Expansion arrows -->
  <path d="M10 50 L5 50 L10 45 L15 50 L10 50 Z" fill="#4CAF50" />
  <path d="M90 50 L95 50 L90 45 L85 50 L90 50 Z" fill="#4CAF50" />
  <path d="M50 10 L50 5 L45 10 L50 15 L50 10 Z" fill="#4CAF50" />
  <path d="M50 90 L50 95 L45 90 L50 85 L50 90 Z" fill="#4CAF50" />
  
  <!-- Plants in some plots -->
  <circle cx="30" cy="30" r="5" fill="#8BC34A" />
  <path d="M30 30 L30 25" stroke="#33691E" stroke-width="1" />
  
  <circle cx="70" cy="30" r="5" fill="#8BC34A" />
  <path d="M70 30 L70 25" stroke="#33691E" stroke-width="1" />
  
  <circle cx="50" cy="50" r="7" fill="#8BC34A" />
  <path d="M50 50 L50 43" stroke="#33691E" stroke-width="1" />
  
  <!-- Plus symbol for expansion -->
  <circle cx="50" cy="75" r="10" fill="#4CAF50" />
  <path d="M45 75 L55 75" stroke="white" stroke-width="3" />
  <path d="M50 70 L50 80" stroke="white" stroke-width="3" />
</svg>