<svg xmlns="http://www.w3.org/2000/svg" viewBox="0 0 100 100">
  <!-- Fertilizer bag -->
  <path d="M30 30 L70 30 L65 85 L35 85 Z" fill="#795548" />
  <path d="M30 30 L70 30 L65 85 L35 85 Z" stroke="#5D4037" stroke-width="2" fill="none" />
  
  <!-- Bag top fold -->
  <path d="M30 30 C30 25, 70 25, 70 30" fill="#8D6E63" />
  
  <!-- Fertilizer label -->
  <rect x="35" y="40" width="30" height="20" fill="#4CAF50" />
  <text x="50" y="53" font-family="Arial" font-size="8" text-anchor="middle" fill="white">NPK</text>
  <text x="50" y="58" font-family="Arial" font-size="4" text-anchor="middle" fill="white">10-10-10</text>
  
  <!-- Fertilizer particles -->
  <circle cx="40" cy="70" r="3" fill="#8BC34A" />
  <circle cx="50" cy="75" r="3" fill="#8BC34A" />
  <circle cx="60" cy="70" r="3" fill="#8BC34A" />
  <circle cx="45" cy="65" r="2" fill="#8BC34A" />
  <circle cx="55" cy="65" r="2" fill="#8BC34A" />
  
  <!-- Growth symbols -->
  <path d="M25 50 L35 40" stroke="#4CAF50" stroke-width="2" />
  <path d="M25 40 L35 50" stroke="#4CAF50" stroke-width="2" />
  
  <path d="M65 50 L75 40" stroke="#4CAF50" stroke-width="2" />
  <path d="M65 40 L75 50" stroke="#4CAF50" stroke-width="2" />
  
  <!-- Plant growth illustration -->
  <path d="M50 15 L50 30" stroke="#33691E" stroke-width="2" />
  <path d="M50 20 L45 15" stroke="#33691E" stroke-width="1" />
  <path d="M50 25 L55 20" stroke="#33691E" stroke-width="1" />
  <circle cx="50" cy="10" r="5" fill="#66BB6A" />
</svg>