<svg xmlns="http://www.w3.org/2000/svg" viewBox="0 0 100 100">
  <circle cx="50" cy="85" r="12" fill="#795548" />
  <path d="M50 5 L50 75" stroke="#5D4037" stroke-width="5" />
  <path d="M50 15 L30 20" stroke="#5D4037" stroke-width="3" />
  <path d="M50 25 L70 30" stroke="#5D4037" stroke-width="3" />
  <path d="M50 35 L30 40" stroke="#5D4037" stroke-width="3" />
  <path d="M50 45 L70 50" stroke="#5D4037" stroke-width="3" />
  <path d="M50 55 L30 60" stroke="#5D4037" stroke-width="3" />
  <path d="M50 65 L70 70" stroke="#5D4037" stroke-width="3" />
  <circle cx="30" cy="20" r="10" fill="#F8BBD0" />
  <circle cx="70" cy="30" r="10" fill="#F8BBD0" />
  <circle cx="30" cy="40" r="10" fill="#F8BBD0" />
  <circle cx="70" cy="50" r="10" fill="#F8BBD0" />
  <circle cx="30" cy="60" r="10" fill="#F8BBD0" />
  <circle cx="70" cy="70" r="10" fill="#F8BBD0" />
  <circle cx="50" cy="5" r="12" fill="#F8BBD0" />
  <circle cx="25" cy="18" r="2" fill="#FFFFFF" />
  <circle cx="65" cy="28" r="2" fill="#FFFFFF" />
  <circle cx="25" cy="38" r="2" fill="#FFFFFF" />
  <circle cx="65" cy="48" r="2" fill="#FFFFFF" />
  <circle cx="25" cy="58" r="2" fill="#FFFFFF" />
  <circle cx="65" cy="68" r="2" fill="#FFFFFF" />
  <circle cx="45" cy="3" r="2" fill="#FFFFFF" />
</svg>