<svg xmlns="http://www.w3.org/2000/svg" viewBox="0 0 100 100">
  <!-- Soil/Pot -->
  <ellipse cx="50" cy="85" rx="25" ry="10" fill="#8a5a44"/>
  
  <!-- Main stem -->
  <path d="M50 85 C50 70 55 60 50 30" stroke="#2d8f45" stroke-width="3" fill="none"/>
  
  <!-- Leaves -->
  <path d="M50 70 Q65 65 70 70 Q65 80 50 70" fill="#3ca55c"/>
  <path d="M50 70 Q35 65 30 70 Q35 80 50 70" fill="#3ca55c"/>
  <path d="M50 55 Q65 50 75 55 Q65 65 50 55" fill="#3ca55c"/>
  <path d="M50 55 Q35 50 25 55 Q35 65 50 55" fill="#3ca55c"/>
  
  <!-- Orchid buds -->
  <circle cx="50" cy="30" r="8" fill="#e6a8e0"/>
  <circle cx="45" cy="40" r="6" fill="#e6a8e0"/>
  <circle cx="55" cy="35" r="7" fill="#e6a8e0"/>
  
  <!-- Bud details -->
  <path d="M50 30 Q55 25 60 30 Q55 35 50 30" fill="#d896d2"/>
  <path d="M50 30 Q45 25 40 30 Q45 35 50 30" fill="#d896d2"/>
  <path d="M45 40 Q50 35 55 40 Q50 45 45 40" fill="#d896d2"/>
  <path d="M55 35 Q60 30 65 35 Q60 40 55 35" fill="#d896d2"/>
  
  <!-- Roots -->
  <path d="M50 85 Q40 90 30 95" stroke="#8a5a44" stroke-width="2" fill="none"/>
  <path d="M50 85 Q60 90 70 95" stroke="#8a5a44" stroke-width="2" fill="none"/>
</svg>