<svg xmlns="http://www.w3.org/2000/svg" viewBox="0 0 100 100">
  <!-- Soil/Pot -->
  <ellipse cx="50" cy="85" rx="25" ry="10" fill="#8a5a44"/>
  
  <!-- Main stem -->
  <path d="M50 85 C50 70 55 60 50 30" stroke="#6e6e8f" stroke-width="3" fill="none"/>
  
  <!-- Branches -->
  <path d="M50 60 C60 55 65 50 70 45" stroke="#6e6e8f" stroke-width="2" fill="none"/>
  <path d="M50 50 C40 45 35 40 30 35" stroke="#6e6e8f" stroke-width="2" fill="none"/>
  
  <!-- Leaves -->
  <path d="M50 70 Q65 65 70 70 Q65 80 50 70" fill="#8f8fb3"/>
  <path d="M50 70 Q35 65 30 70 Q35 80 50 70" fill="#8f8fb3"/>
  
  <!-- Moon buds -->
  <circle cx="50" cy="30" r="8" fill="#d0d0ff"/>
  <circle cx="70" cy="45" r="6" fill="#d0d0ff"/>
  <circle cx="30" cy="35" r="6" fill="#d0d0ff"/>
  
  <!-- Crescent details on buds -->
  <path d="M47 30 Q53 25 53 35 Q47 40 47 30" fill="#ffffff" opacity="0.7"/>
  <path d="M67 45 Q73 40 73 50 Q67 55 67 45" fill="#ffffff" opacity="0.7"/>
  <path d="M27 35 Q33 30 33 40 Q27 45 27 35" fill="#ffffff" opacity="0.7"/>
  
  <!-- Moon glow -->
  <circle cx="50" cy="50" r="35" fill="#d8d8ff" opacity="0.15"/>
  
  <!-- Star specks -->
  <circle cx="45" cy="25" r="1" fill="#ffffff"/>
  <circle cx="55" cy="35" r="1" fill="#ffffff"/>
  <circle cx="65" cy="40" r="1" fill="#ffffff"/>
  <circle cx="35" cy="30" r="1" fill="#ffffff"/>
  <circle cx="40" cy="60" r="1" fill="#ffffff"/>
  <circle cx="60" cy="65" r="1" fill="#ffffff"/>
  
  <!-- Roots -->
  <path d="M50 85 Q40 90 30 95" stroke="#8a5a44" stroke-width="2" fill="none"/>
  <path d="M50 85 Q60 90 70 95" stroke="#8a5a44" stroke-width="2" fill="none"/>
</svg>