<svg xmlns="http://www.w3.org/2000/svg" viewBox="0 0 100 100">
  <!-- Soil/Pot -->
  <ellipse cx="50" cy="85" rx="25" ry="10" fill="#8a5a44"/>
  
  <!-- Crystal stem -->
  <path d="M50 85 C50 70 48 50 50 20" stroke="#88c1d3" stroke-width="3" fill="none"/>
  
  <!-- Crystal branches -->
  <path d="M50 60 C65 55 75 45 80 40" stroke="#88c1d3" stroke-width="2" fill="none"/>
  <path d="M50 50 C35 45 25 35 20 30" stroke="#88c1d3" stroke-width="2" fill="none"/>
  <path d="M50 40 C60 35 65 25 65 20" stroke="#88c1d3" stroke-width="2" fill="none"/>
  <path d="M50 30 C40 25 35 15 35 10" stroke="#88c1d3" stroke-width="2" fill="none"/>
  
  <!-- Crystal leaves -->
  <polygon points="50,70 65,65 70,70 65,80" fill="#a4c2f4"/>
  <polygon points="50,70 35,65 30,70 35,80" fill="#a4c2f4"/>
  
  <!-- Crystal flowers -->
  <!-- Main flower -->
  <polygon points="50,15 55,20 50,25 45,20" fill="#d5e3ff"/>
  <polygon points="50,15 60,15 55,20" fill="#a4c2f4"/>
  <polygon points="50,15 40,15 45,20" fill="#a4c2f4"/>
  <polygon points="55,20 60,25 50,25" fill="#a4c2f4"/>
  <polygon points="45,20 40,25 50,25" fill="#a4c2f4"/>
  <circle cx="50" cy="20" r="3" fill="#ffffff" opacity="0.7"/>
  
  <!-- Side flowers -->
  <polygon points="80,40 85,45 80,50 75,45" fill="#d5e3ff"/>
  <polygon points="20,30 25,35 20,40 15,35" fill="#d5e3ff"/>
  <polygon points="65,20 70,25 65,30 60,25" fill="#d5e3ff"/>
  <polygon points="35,10 40,15 35,20 30,15" fill="#d5e3ff"/>
  
  <!-- Crystal shine -->
  <circle cx="50" cy="20" r="2" fill="#ffffff"/>
  <circle cx="80" cy="45" r="2" fill="#ffffff"/>
  <circle cx="20" cy="35" r="2" fill="#ffffff"/>
  <circle cx="65" cy="25" r="2" fill="#ffffff"/>
  <circle cx="35" cy="15" r="2" fill="#ffffff"/>
  
  <!-- Crystal glow -->
  <circle cx="50" cy="40" r="45" fill="#a4c2f4" opacity="0.15"/>
  
  <!-- Light beams -->
  <path d="M50 20 L55 10" stroke="#ffffff" stroke-width="1" opacity="0.5"/>
  <path d="M50 20 L45 10" stroke="#ffffff" stroke-width="1" opacity="0.5"/>
  <path d="M50 20 L60 15" stroke="#ffffff" stroke-width="1" opacity="0.5"/>
  <path d="M50 20 L40 15" stroke="#ffffff" stroke-width="1" opacity="0.5"/>
  
  <!-- Roots -->
  <path d="M50 85 Q35 90 20 95" stroke="#8a5a44" stroke-width="2" fill="none"/>
  <path d="M50 85 Q65 90 80 95" stroke="#8a5a44" stroke-width="2" fill="none"/>
</svg>