<svg xmlns="http://www.w3.org/2000/svg" viewBox="0 0 100 100">
  <!-- Soil/Pot -->
  <ellipse cx="50" cy="85" rx="25" ry="10" fill="#8a5a44"/>
  
  <!-- Main stem -->
  <path d="M50 85 C50 70 55 60 50 30" stroke="#daa520" stroke-width="3" fill="none"/>
  
  <!-- Branches -->
  <path d="M50 60 C60 55 65 50 70 45" stroke="#daa520" stroke-width="2" fill="none"/>
  <path d="M50 50 C40 45 35 40 30 35" stroke="#daa520" stroke-width="2" fill="none"/>
  
  <!-- Leaves -->
  <path d="M50 70 Q65 65 70 70 Q65 80 50 70" fill="#ffd700"/>
  <path d="M50 70 Q35 65 30 70 Q35 80 50 70" fill="#ffd700"/>
  <path d="M70 45 Q80 40 85 45 Q80 55 70 45" fill="#ffd700"/>
  <path d="M30 35 Q20 30 15 35 Q20 45 30 35" fill="#ffd700"/>
  
  <!-- Golden buds -->
  <circle cx="50" cy="30" r="8" fill="#ffd700"/>
  <circle cx="70" cy="45" r="6" fill="#ffd700"/>
  <circle cx="30" cy="35" r="6" fill="#ffd700"/>
  
  <!-- Golden glow -->
  <circle cx="50" cy="50" r="40" fill="#ffd700" opacity="0.1"/>
  
  <!-- Roots -->
  <path d="M50 85 Q40 90 30 95" stroke="#8a5a44" stroke-width="2" fill="none"/>
  <path d="M50 85 Q60 90 70 95" stroke="#8a5a44" stroke-width="2" fill="none"/>
</svg>