<svg xmlns="http://www.w3.org/2000/svg" viewBox="0 0 100 100">
  <!-- Soil/Pot -->
  <ellipse cx="50" cy="85" rx="25" ry="10" fill="#8a5a44"/>
  
  <!-- Main stem -->
  <path d="M50 85 C50 70 45 50 50 20" stroke="#2d8f45" stroke-width="3" fill="none"/>
  <path d="M50 60 C60 55 65 45 70 40" stroke="#2d8f45" stroke-width="2" fill="none"/>
  <path d="M50 50 C40 45 35 35 30 30" stroke="#2d8f45" stroke-width="2" fill="none"/>
  
  <!-- Leaves -->
  <path d="M50 70 Q65 65 75 70 Q65 80 50 70" fill="#3ca55c"/>
  <path d="M50 70 Q35 65 25 70 Q35 80 50 70" fill="#3ca55c"/>
  
  <!-- Orchid flowers -->
  <!-- Center flower -->
  <path d="M50 20 Q60 15 65 20 Q60 30 50 25 Q40 30 35 20 Q40 15 50 20" fill="#e6a8e0"/>
  <path d="M50 20 Q55 10 50 5 Q45 10 50 20" fill="#d896d2"/>
  <circle cx="50" cy="25" r="4" fill="#f9e44c"/>
  
  <!-- Right flower -->
  <path d="M70 40 Q80 35 85 40 Q80 50 70 45 Q60 50 55 40 Q60 35 70 40" fill="#e6a8e0"/>
  <path d="M70 40 Q75 30 70 25 Q65 30 70 40" fill="#d896d2"/>
  <circle cx="70" cy="45" r="3" fill="#f9e44c"/>
  
  <!-- Left flower -->
  <path d="M30 30 Q40 25 45 30 Q40 40 30 35 Q20 40 15 30 Q20 25 30 30" fill="#e6a8e0"/>
  <path d="M30 30 Q35 20 30 15 Q25 20 30 30" fill="#d896d2"/>
  <circle cx="30" cy="35" r="3" fill="#f9e44c"/>
  
  <!-- Roots -->
  <path d="M50 85 Q40 90 30 95" stroke="#8a5a44" stroke-width="2" fill="none"/>
  <path d="M50 85 Q60 90 70 95" stroke="#8a5a44" stroke-width="2" fill="none"/>
</svg>