<svg xmlns="http://www.w3.org/2000/svg" viewBox="0 0 100 100">
  <circle cx="50" cy="80" r="15" fill="#795548" />
  <path d="M50 10 L50 65" stroke="#7B1FA2" stroke-width="4" />
  <path d="M50 20 L35 25" stroke="#7B1FA2" stroke-width="3" />
  <path d="M50 30 L65 35" stroke="#7B1FA2" stroke-width="3" />
  <path d="M50 40 L35 45" stroke="#7B1FA2" stroke-width="3" />
  <path d="M50 50 L65 55" stroke="#7B1FA2" stroke-width="3" />
  <circle cx="35" cy="25" r="8" fill="#E91E63" />
  <circle cx="65" cy="35" r="8" fill="#E91E63" />
  <circle cx="35" cy="45" r="8" fill="#E91E63" />
  <circle cx="65" cy="55" r="8" fill="#E91E63" />
  <circle cx="50" cy="10" r="10" fill="#E91E63" />
  <path d="M30 20 L40 30" stroke="#7B1FA2" stroke-width="1" />
  <path d="M40 20 L30 30" stroke="#7B1FA2" stroke-width="1" />
  <path d="M60 30 L70 40" stroke="#7B1FA2" stroke-width="1" />
  <path d="M70 30 L60 40" stroke="#7B1FA2" stroke-width="1" />
  <path d="M30 40 L40 50" stroke="#7B1FA2" stroke-width="1" />
  <path d="M40 40 L30 50" stroke="#7B1FA2" stroke-width="1" />
  <path d="M60 50 L70 60" stroke="#7B1FA2" stroke-width="1" />
  <path d="M70 50 L60 60" stroke="#7B1FA2" stroke-width="1" />
  <path d="M45 5 L55 15" stroke="#7B1FA2" stroke-width="1" />
  <path d="M55 5 L45 15" stroke="#7B1FA2" stroke-width="1" />
</svg>