<svg xmlns="http://www.w3.org/2000/svg" viewBox="0 0 100 100">
  <!-- Soil/Pot -->
  <ellipse cx="50" cy="85" rx="25" ry="10" fill="#8a5a44"/>
  
  <!-- Main stem -->
  <path d="M50 85 L50 50" stroke="#daa520" stroke-width="3" fill="none"/>
  
  <!-- Small leaves -->
  <path d="M50 65 Q60 60 65 65 Q60 70 50 65" fill="#ffd700"/>
  <path d="M50 65 Q40 60 35 65 Q40 70 50 65" fill="#ffd700"/>
  
  <!-- Golden bud -->
  <circle cx="50" cy="50" r="8" fill="#ffd700"/>
  
  <!-- Bud details -->
  <path d="M50 50 Q55 45 60 50 Q55 55 50 50" fill="#daa520"/>
  <path d="M50 50 Q45 45 40 50 Q45 55 50 50" fill="#daa520"/>
  
  <!-- Golden glow -->
  <circle cx="50" cy="50" r="15" fill="#ffd700" opacity="0.2"/>
  
  <!-- Roots -->
  <path d="M50 85 Q40 90 35 95" stroke="#8a5a44" stroke-width="2" fill="none"/>
  <path d="M50 85 Q60 90 65 95" stroke="#8a5a44" stroke-width="2" fill="none"/>
</svg>