<svg xmlns="http://www.w3.org/2000/svg" viewBox="0 0 100 100">
  <!-- Soil/Pot -->
  <ellipse cx="50" cy="85" rx="25" ry="10" fill="#8a5a44"/>
  
  <!-- Main stem -->
  <path d="M50 85 C50 70 48 50 50 20" stroke="#6e6e8f" stroke-width="3" fill="none"/>
  
  <!-- Branches -->
  <path d="M50 60 C65 55 75 45 80 40" stroke="#6e6e8f" stroke-width="2" fill="none"/>
  <path d="M50 50 C35 45 25 35 20 30" stroke="#6e6e8f" stroke-width="2" fill="none"/>
  <path d="M50 40 C60 35 65 25 65 20" stroke="#6e6e8f" stroke-width="2" fill="none"/>
  <path d="M50 30 C40 25 35 15 35 10" stroke="#6e6e8f" stroke-width="2" fill="none"/>
  
  <!-- Leaves -->
  <path d="M50 70 Q65 65 70 70 Q65 80 50 70" fill="#8f8fb3"/>
  <path d="M50 70 Q35 65 30 70 Q35 80 50 70" fill="#8f8fb3"/>
  
  <!-- Moon flowers -->
  <!-- Main flower -->
  <circle cx="50" cy="20" r="12" fill="#d0d0ff"/>
  <path d="M45 20 Q55 15 55 25 Q45 30 45 20" fill="#ffffff" opacity="0.7"/>
  
  <!-- Side flowers -->
  <circle cx="80" cy="40" r="8" fill="#d0d0ff"/>
  <path d="M77 40 Q83 35 83 45 Q77 50 77 40" fill="#ffffff" opacity="0.7"/>
  
  <circle cx="20" cy="30" r="8" fill="#d0d0ff"/>
  <path d="M17 30 Q23 25 23 35 Q17 40 17 30" fill="#ffffff" opacity="0.7"/>
  
  <circle cx="65" cy="20" r="8" fill="#d0d0ff"/>
  <path d="M62 20 Q68 15 68 25 Q62 30 62 20" fill="#ffffff" opacity="0.7"/>
  
  <circle cx="35" cy="10" r="8" fill="#d0d0ff"/>
  <path d="M32 10 Q38 5 38 15 Q32 20 32 10" fill="#ffffff" opacity="0.7"/>
  
  <!-- Moon glow -->
  <circle cx="50" cy="40" r="45" fill="#d8d8ff" opacity="0.15"/>
  
  <!-- Star specks -->
  <circle cx="45" cy="15" r="1" fill="#ffffff"/>
  <circle cx="55" cy="25" r="1" fill="#ffffff"/>
  <circle cx="75" cy="35" r="1" fill="#ffffff"/>
  <circle cx="25" cy="25" r="1" fill="#ffffff"/>
  <circle cx="60" cy="15" r="1" fill="#ffffff"/>
  <circle cx="40" cy="5" r="1" fill="#ffffff"/>
  <circle cx="40" cy="60" r="1" fill="#ffffff"/>
  <circle cx="60" cy="65" r="1" fill="#ffffff"/>
  
  <!-- Roots -->
  <path d="M50 85 Q35 90 20 95" stroke="#8a5a44" stroke-width="2" fill="none"/>
  <path d="M50 85 Q65 90 80 95" stroke="#8a5a44" stroke-width="2" fill="none"/>
</svg>