<svg xmlns="http://www.w3.org/2000/svg" viewBox="0 0 100 100">
  <!-- Seed packet -->
  <rect x="25" y="30" width="50" height="60" rx="5" ry="5" fill="#ffeeb3"/>
  
  <!-- Packet top fold -->
  <path d="M25 35 L50 25 L75 35" fill="#ffd700"/>
  <path d="M25 35 L50 25 L75 35" fill="none" stroke="#daa520" stroke-width="1"/>
  
  <!-- Packet border -->
  <rect x="25" y="30" width="50" height="60" rx="5" ry="5" fill="none" stroke="#daa520" stroke-width="2"/>
  
  <!-- Packet label -->
  <rect x="30" y="45" width="40" height="30" rx="3" ry="3" fill="#ffffff"/>
  
  <!-- Golden tree icon -->
  <path d="M50 75 L50 55" stroke="#b8860b" stroke-width="2" fill="none"/>
  <path d="M50 65 L45 60" stroke="#b8860b" stroke-width="1" fill="none"/>
  <path d="M50 60 L55 55" stroke="#b8860b" stroke-width="1" fill="none"/>
  <circle cx="50" cy="50" r="7" fill="#ffd700"/>
  <circle cx="45" cy="60" r="3" fill="#ffd700"/>
  <circle cx="55" cy="55" r="3" fill="#ffd700"/>
  
  <!-- Golden glow -->
  <circle cx="50" cy="55" r="15" fill="#ffd700" opacity="0.2"/>
  
  <!-- Text lines -->
  <line x1="35" y1="70" x2="65" y2="70" stroke="#888888" stroke-width="1"/>
  <line x1="35" y1="75" x2="55" y2="75" stroke="#888888" stroke-width="1"/>
</svg>