<svg xmlns="http://www.w3.org/2000/svg" viewBox="0 0 100 100">
  <!-- Seed packet -->
  <rect x="25" y="30" width="50" height="60" rx="5" ry="5" fill="#f5e1f7"/>
  
  <!-- Packet top fold -->
  <path d="M25 35 L50 25 L75 35" fill="#e6a8e0"/>
  <path d="M25 35 L50 25 L75 35" fill="none" stroke="#d896d2" stroke-width="1"/>
  
  <!-- Packet border -->
  <rect x="25" y="30" width="50" height="60" rx="5" ry="5" fill="none" stroke="#d896d2" stroke-width="2"/>
  
  <!-- Packet label -->
  <rect x="30" y="45" width="40" height="30" rx="3" ry="3" fill="#ffffff"/>
  
  <!-- Orchid flower icon -->
  <path d="M50 55 Q55 50 60 55 Q55 60 50 55" fill="#e6a8e0"/>
  <path d="M50 55 Q45 50 40 55 Q45 60 50 55" fill="#e6a8e0"/>
  <path d="M50 55 Q55 60 50 65 Q45 60 50 55" fill="#e6a8e0"/>
  <path d="M50 55 Q45 60 40 65 Q45 55 50 55" fill="#e6a8e0"/>
  <path d="M50 55 Q55 60 60 65 Q55 55 50 55" fill="#e6a8e0"/>
  <circle cx="50" cy="55" r="3" fill="#f9e44c"/>
  
  <!-- Text lines -->
  <line x1="35" y1="70" x2="65" y2="70" stroke="#888888" stroke-width="1"/>
  <line x1="35" y1="75" x2="55" y2="75" stroke="#888888" stroke-width="1"/>
</svg>